<svg id="color" enable-background="new 0 0 24 24" height="512" viewBox="0 0 24 24" width="512" xmlns="http://www.w3.org/2000/svg"><path d="m14.25 0h-11.5c-1.52 0-2.75 1.23-2.75 2.75v15.5c0 1.52 1.23 2.75 2.75 2.75h8.15c-.84-1.33-1.4-2.9-1.4-4.7v-4.01c0-.05 0-.1.01-.15.04-.85.44-1.63 1.07-2.14.28-.25.6-.43.95-.55l2.4-.82 2.85-.97c.07-.03.14-.05.22-.06v-4.85c0-1.52-1.23-2.75-2.75-2.75z" fill="#eceff1"/><g fill="#90a4ae"><path d="m13.93 8.63-2.4.82c-.35.12-.67.3-.95.55h-6.58c-.55 0-1-.45-1-1s.45-1 1-1h9c.42 0 .78.26.93.63z"/><path d="m9.51 12.14c-.01.05-.01.1-.01.15v1.57c-.15.09-.32.14-.5.14h-5c-.55 0-1-.45-1-1s.45-1 1-1h5c.19 0 .36.05.51.14z"/><path d="m8 6h-4c-.552 0-1-.448-1-1s.448-1 1-1h4c.552 0 1 .448 1 1s-.448 1-1 1z"/></g><path d="m17.75 24c-.133 0-.267-.026-.392-.08-.239-.102-5.858-2.549-5.858-7.617v-4.018c0-.428.272-.809.678-.947l5.25-1.786c.209-.071.436-.071.645 0l5.25 1.786c.405.139.677.519.677.948v4.018c0 5.067-5.619 7.515-5.858 7.617-.125.053-.259.079-.392.079z" fill="#4caf50"/><path d="m17.5 19.5c-.265 0-.519-.104-.707-.293l-2-2c-.391-.391-.391-1.023 0-1.414s1.023-.391 1.414 0l1.185 1.185 2.308-3.078c.331-.441.958-.532 1.399-.2.442.331.532.958.2 1.4l-3 4c-.174.232-.439.377-.729.397-.023.002-.047.003-.07.003z" fill="#fff"/></svg>